<mxfile host="app.diagrams.net" modified="2021-05-21T08:00:31.340Z" agent="5.0 (Windows NT 10.0; Win64; x64) AppleWebKit/537.36 (KHTML, like Gecko) Chrome/90.0.4430.212 Safari/537.36" etag="BAJkVrY5HHu_-zfV1A3C" version="14.6.13" type="github">
  <diagram name="Page-1" id="74e2e168-ea6b-b213-b513-2b3c1d86103e">
    <mxGraphModel dx="2073" dy="934" grid="0" gridSize="10" guides="1" tooltips="1" connect="1" arrows="1" fold="1" page="0" pageScale="1" pageWidth="1100" pageHeight="850" background="#FFFFFF" math="0" shadow="0">
      <root>
        <mxCell id="0" />
        <mxCell id="1" parent="0" />
        <mxCell id="wRmezuv_6qh3SEUALK7n-1" value="평균 차이 검정" style="rounded=1;whiteSpace=wrap;html=1;fontSize=14;fontFamily=Tahoma;fontStyle=1;fillColor=#A8DADC;strokeColor=#457B9D;fontColor=#1D3557;" vertex="1" parent="1">
          <mxGeometry x="360" y="60" width="120" height="60" as="geometry" />
        </mxCell>
        <mxCell id="wRmezuv_6qh3SEUALK7n-2" value="비교할 집단의 수가&amp;nbsp;&lt;br style=&quot;font-size: 14px;&quot;&gt;2개 이하인가?" style="rhombus;whiteSpace=wrap;html=1;fontSize=14;fontFamily=Tahoma;fontStyle=1;fillColor=#A8DADC;strokeColor=#457B9D;fontColor=#1D3557;" vertex="1" parent="1">
          <mxGeometry x="330" y="146" width="180" height="90" as="geometry" />
        </mxCell>
        <mxCell id="wRmezuv_6qh3SEUALK7n-3" value="T-test" style="rounded=1;whiteSpace=wrap;html=1;fontSize=14;fontFamily=Tahoma;fontStyle=1;fillColor=#A8DADC;strokeColor=#457B9D;fontColor=#1D3557;" vertex="1" parent="1">
          <mxGeometry x="170" y="230" width="100" height="60" as="geometry" />
        </mxCell>
        <mxCell id="wRmezuv_6qh3SEUALK7n-4" value="ANOVA&lt;br style=&quot;font-size: 14px;&quot;&gt;(분산분석)" style="rounded=1;whiteSpace=wrap;html=1;fontSize=14;fontFamily=Tahoma;fontStyle=1;fillColor=#A8DADC;strokeColor=#457B9D;fontColor=#1D3557;" vertex="1" parent="1">
          <mxGeometry x="571" y="230" width="100" height="60" as="geometry" />
        </mxCell>
        <mxCell id="wRmezuv_6qh3SEUALK7n-5" value="표본 집단끼리&amp;nbsp;&lt;br&gt;독립인가?" style="rhombus;whiteSpace=wrap;html=1;fontSize=14;fontFamily=Tahoma;fontStyle=1;fillColor=#A8DADC;strokeColor=#457B9D;fontColor=#1D3557;" vertex="1" parent="1">
          <mxGeometry x="130" y="315" width="180" height="90" as="geometry" />
        </mxCell>
        <mxCell id="wRmezuv_6qh3SEUALK7n-6" value="정규성,등분산성&lt;br&gt;을 만족하는가?" style="rhombus;whiteSpace=wrap;html=1;fontSize=14;fontFamily=Tahoma;fontStyle=1;fillColor=#A8DADC;strokeColor=#457B9D;fontColor=#1D3557;" vertex="1" parent="1">
          <mxGeometry x="30" y="400" width="140" height="80" as="geometry" />
        </mxCell>
        <mxCell id="wRmezuv_6qh3SEUALK7n-7" value="독립표본&lt;br style=&quot;font-size: 14px;&quot;&gt;T-test" style="rounded=1;whiteSpace=wrap;html=1;fontSize=14;fontFamily=Tahoma;fontStyle=1;fillColor=#A8DADC;strokeColor=#457B9D;fontColor=#1D3557;" vertex="1" parent="1">
          <mxGeometry x="-18" y="494" width="95" height="45" as="geometry" />
        </mxCell>
        <mxCell id="wRmezuv_6qh3SEUALK7n-8" value="One-way ANOVA" style="rounded=1;whiteSpace=wrap;html=1;fontSize=14;fontFamily=Tahoma;fontStyle=1;fillColor=#A8DADC;strokeColor=#457B9D;fontColor=#1D3557;" vertex="1" parent="1">
          <mxGeometry x="482" y="496" width="95" height="45" as="geometry" />
        </mxCell>
        <mxCell id="wRmezuv_6qh3SEUALK7n-9" value="Kruskal-Wallis 검정" style="rounded=1;whiteSpace=wrap;html=1;fontSize=14;fontFamily=Tahoma;fontStyle=1;fillColor=#A8DADC;strokeColor=#457B9D;fontColor=#1D3557;" vertex="1" parent="1">
          <mxGeometry x="662.5" y="496" width="95" height="45" as="geometry" />
        </mxCell>
        <mxCell id="wRmezuv_6qh3SEUALK7n-10" value="대응표본&lt;br style=&quot;font-size: 14px;&quot;&gt;T-test" style="rounded=1;whiteSpace=wrap;html=1;fontSize=14;fontFamily=Tahoma;fontStyle=1;fillColor=#A8DADC;strokeColor=#457B9D;fontColor=#1D3557;" vertex="1" parent="1">
          <mxGeometry x="223" y="494" width="95" height="45" as="geometry" />
        </mxCell>
        <mxCell id="wRmezuv_6qh3SEUALK7n-11" value="정규성,등분산성,독립성을 모두 만족하는가?" style="rhombus;whiteSpace=wrap;html=1;fontSize=14;fontFamily=Tahoma;fontStyle=1;fillColor=#A8DADC;strokeColor=#457B9D;fontColor=#1D3557;" vertex="1" parent="1">
          <mxGeometry x="531" y="315" width="180" height="70" as="geometry" />
        </mxCell>
        <mxCell id="wRmezuv_6qh3SEUALK7n-12" value="정규성,등분산성&lt;br&gt;을 만족하는가?" style="rhombus;whiteSpace=wrap;html=1;fontSize=14;fontFamily=Tahoma;fontStyle=1;fillColor=#A8DADC;strokeColor=#457B9D;fontColor=#1D3557;" vertex="1" parent="1">
          <mxGeometry x="270" y="400" width="140" height="80" as="geometry" />
        </mxCell>
        <mxCell id="wRmezuv_6qh3SEUALK7n-13" value="Wilcoxon검정" style="rounded=1;whiteSpace=wrap;html=1;fontSize=14;fontFamily=Tahoma;fontStyle=1;fillColor=#A8DADC;strokeColor=#457B9D;fontColor=#1D3557;" vertex="1" parent="1">
          <mxGeometry x="122" y="494" width="95" height="45" as="geometry" />
        </mxCell>
        <mxCell id="wRmezuv_6qh3SEUALK7n-14" value="Mann-Whitney 검정" style="rounded=1;whiteSpace=wrap;html=1;fontSize=14;fontFamily=Tahoma;fontStyle=1;fillColor=#A8DADC;strokeColor=#457B9D;fontColor=#1D3557;" vertex="1" parent="1">
          <mxGeometry x="363" y="494" width="95" height="45" as="geometry" />
        </mxCell>
        <mxCell id="wRmezuv_6qh3SEUALK7n-15" value="" style="endArrow=classic;html=1;exitX=0.5;exitY=1;exitDx=0;exitDy=0;fontSize=14;fontFamily=Tahoma;fontStyle=1;labelBackgroundColor=#F1FAEE;strokeColor=#457B9D;fontColor=#1D3557;" edge="1" parent="1" source="wRmezuv_6qh3SEUALK7n-1" target="wRmezuv_6qh3SEUALK7n-2">
          <mxGeometry width="50" height="50" relative="1" as="geometry">
            <mxPoint x="525" y="130" as="sourcePoint" />
            <mxPoint x="575" y="80" as="targetPoint" />
          </mxGeometry>
        </mxCell>
        <mxCell id="wRmezuv_6qh3SEUALK7n-17" value="" style="endArrow=classic;html=1;exitX=0;exitY=0.5;exitDx=0;exitDy=0;fontSize=14;fontFamily=Tahoma;fontStyle=1;labelBackgroundColor=#F1FAEE;strokeColor=#457B9D;fontColor=#1D3557;" edge="1" parent="1" source="wRmezuv_6qh3SEUALK7n-2" target="wRmezuv_6qh3SEUALK7n-3">
          <mxGeometry width="50" height="50" relative="1" as="geometry">
            <mxPoint x="300" y="165" as="sourcePoint" />
            <mxPoint x="290" y="230" as="targetPoint" />
            <Array as="points">
              <mxPoint x="220" y="190" />
            </Array>
          </mxGeometry>
        </mxCell>
        <mxCell id="wRmezuv_6qh3SEUALK7n-18" value="" style="endArrow=classic;html=1;exitX=1;exitY=0.5;exitDx=0;exitDy=0;entryX=0.5;entryY=0;entryDx=0;entryDy=0;fontSize=14;fontFamily=Tahoma;fontStyle=1;labelBackgroundColor=#F1FAEE;strokeColor=#457B9D;fontColor=#1D3557;" edge="1" parent="1" source="wRmezuv_6qh3SEUALK7n-2" target="wRmezuv_6qh3SEUALK7n-4">
          <mxGeometry width="50" height="50" relative="1" as="geometry">
            <mxPoint x="540.9999999999995" y="165" as="sourcePoint" />
            <mxPoint x="601" y="225" as="targetPoint" />
            <Array as="points">
              <mxPoint x="621" y="190" />
            </Array>
          </mxGeometry>
        </mxCell>
        <mxCell id="wRmezuv_6qh3SEUALK7n-19" value="" style="endArrow=classic;html=1;exitX=0.5;exitY=1;exitDx=0;exitDy=0;entryX=0.5;entryY=0;entryDx=0;entryDy=0;fontSize=14;fontFamily=Tahoma;fontStyle=1;labelBackgroundColor=#F1FAEE;strokeColor=#457B9D;fontColor=#1D3557;" edge="1" parent="1" source="wRmezuv_6qh3SEUALK7n-3" target="wRmezuv_6qh3SEUALK7n-5">
          <mxGeometry width="50" height="50" relative="1" as="geometry">
            <mxPoint x="280" y="360" as="sourcePoint" />
            <mxPoint x="330" y="310" as="targetPoint" />
          </mxGeometry>
        </mxCell>
        <mxCell id="wRmezuv_6qh3SEUALK7n-20" value="" style="endArrow=classic;html=1;exitX=0;exitY=0.5;exitDx=0;exitDy=0;entryX=0.5;entryY=0;entryDx=0;entryDy=0;fontSize=14;fontFamily=Tahoma;fontStyle=1;labelBackgroundColor=#F1FAEE;strokeColor=#457B9D;fontColor=#1D3557;" edge="1" parent="1" source="wRmezuv_6qh3SEUALK7n-5" target="wRmezuv_6qh3SEUALK7n-6">
          <mxGeometry width="50" height="50" relative="1" as="geometry">
            <mxPoint x="280" y="360" as="sourcePoint" />
            <mxPoint x="50" y="370" as="targetPoint" />
            <Array as="points">
              <mxPoint x="100" y="360" />
            </Array>
          </mxGeometry>
        </mxCell>
        <mxCell id="wRmezuv_6qh3SEUALK7n-21" value="" style="endArrow=classic;html=1;exitX=1;exitY=0.5;exitDx=0;exitDy=0;entryX=0.5;entryY=0;entryDx=0;entryDy=0;fontSize=14;fontFamily=Tahoma;fontStyle=1;labelBackgroundColor=#F1FAEE;strokeColor=#457B9D;fontColor=#1D3557;" edge="1" parent="1" source="wRmezuv_6qh3SEUALK7n-5" target="wRmezuv_6qh3SEUALK7n-12">
          <mxGeometry width="50" height="50" relative="1" as="geometry">
            <mxPoint x="280" y="360" as="sourcePoint" />
            <mxPoint x="340" y="440" as="targetPoint" />
            <Array as="points">
              <mxPoint x="340" y="360" />
            </Array>
          </mxGeometry>
        </mxCell>
        <mxCell id="wRmezuv_6qh3SEUALK7n-22" value="" style="endArrow=classic;html=1;exitX=0;exitY=0.5;exitDx=0;exitDy=0;entryX=0.5;entryY=0;entryDx=0;entryDy=0;exitPerimeter=0;fontSize=14;fontFamily=Tahoma;fontStyle=1;labelBackgroundColor=#F1FAEE;strokeColor=#457B9D;fontColor=#1D3557;" edge="1" parent="1" source="wRmezuv_6qh3SEUALK7n-6" target="wRmezuv_6qh3SEUALK7n-7">
          <mxGeometry width="50" height="50" relative="1" as="geometry">
            <mxPoint x="5" y="440" as="sourcePoint" />
            <mxPoint x="-65" y="490" as="targetPoint" />
            <Array as="points" />
          </mxGeometry>
        </mxCell>
        <mxCell id="wRmezuv_6qh3SEUALK7n-23" value="" style="endArrow=classic;html=1;entryX=0.5;entryY=0;entryDx=0;entryDy=0;exitX=1;exitY=0.5;exitDx=0;exitDy=0;fontSize=14;fontFamily=Tahoma;fontStyle=1;labelBackgroundColor=#F1FAEE;strokeColor=#457B9D;fontColor=#1D3557;" edge="1" parent="1" source="wRmezuv_6qh3SEUALK7n-6" target="wRmezuv_6qh3SEUALK7n-13">
          <mxGeometry width="50" height="50" relative="1" as="geometry">
            <mxPoint x="160" y="470" as="sourcePoint" />
            <mxPoint x="225.00000000000023" y="490" as="targetPoint" />
            <Array as="points" />
          </mxGeometry>
        </mxCell>
        <mxCell id="wRmezuv_6qh3SEUALK7n-28" value="" style="endArrow=classic;html=1;exitX=0;exitY=0.5;exitDx=0;exitDy=0;entryX=0.5;entryY=0;entryDx=0;entryDy=0;fontSize=14;fontFamily=Tahoma;fontStyle=1;labelBackgroundColor=#F1FAEE;strokeColor=#457B9D;fontColor=#1D3557;" edge="1" parent="1" source="wRmezuv_6qh3SEUALK7n-12" target="wRmezuv_6qh3SEUALK7n-10">
          <mxGeometry width="50" height="50" relative="1" as="geometry">
            <mxPoint x="40" y="450" as="sourcePoint" />
            <mxPoint x="39" y="490" as="targetPoint" />
            <Array as="points" />
          </mxGeometry>
        </mxCell>
        <mxCell id="wRmezuv_6qh3SEUALK7n-29" value="" style="endArrow=classic;html=1;exitX=1;exitY=0.5;exitDx=0;exitDy=0;fontSize=14;fontFamily=Tahoma;fontStyle=1;labelBackgroundColor=#F1FAEE;strokeColor=#457B9D;fontColor=#1D3557;" edge="1" parent="1" source="wRmezuv_6qh3SEUALK7n-12" target="wRmezuv_6qh3SEUALK7n-14">
          <mxGeometry width="50" height="50" relative="1" as="geometry">
            <mxPoint x="180" y="450" as="sourcePoint" />
            <mxPoint x="181" y="490" as="targetPoint" />
            <Array as="points" />
          </mxGeometry>
        </mxCell>
        <mxCell id="wRmezuv_6qh3SEUALK7n-30" value="" style="endArrow=classic;html=1;exitX=0.5;exitY=1;exitDx=0;exitDy=0;entryX=0.5;entryY=0;entryDx=0;entryDy=0;fontSize=14;fontFamily=Tahoma;fontStyle=1;labelBackgroundColor=#F1FAEE;strokeColor=#457B9D;fontColor=#1D3557;" edge="1" parent="1" source="wRmezuv_6qh3SEUALK7n-4" target="wRmezuv_6qh3SEUALK7n-11">
          <mxGeometry width="50" height="50" relative="1" as="geometry">
            <mxPoint x="401" y="360" as="sourcePoint" />
            <mxPoint x="451" y="310" as="targetPoint" />
          </mxGeometry>
        </mxCell>
        <mxCell id="wRmezuv_6qh3SEUALK7n-35" value="" style="endArrow=classic;html=1;exitX=0;exitY=0.5;exitDx=0;exitDy=0;entryX=0.5;entryY=0;entryDx=0;entryDy=0;fontSize=14;fontFamily=Tahoma;fontStyle=1;labelBackgroundColor=#F1FAEE;strokeColor=#457B9D;fontColor=#1D3557;" edge="1" parent="1" source="wRmezuv_6qh3SEUALK7n-11" target="wRmezuv_6qh3SEUALK7n-8">
          <mxGeometry width="50" height="50" relative="1" as="geometry">
            <mxPoint x="670" y="380" as="sourcePoint" />
            <mxPoint x="720" y="330" as="targetPoint" />
          </mxGeometry>
        </mxCell>
        <mxCell id="wRmezuv_6qh3SEUALK7n-36" value="" style="endArrow=classic;html=1;exitX=1;exitY=0.5;exitDx=0;exitDy=0;entryX=0.5;entryY=0;entryDx=0;entryDy=0;fontSize=14;fontFamily=Tahoma;fontStyle=1;labelBackgroundColor=#F1FAEE;strokeColor=#457B9D;fontColor=#1D3557;" edge="1" parent="1" source="wRmezuv_6qh3SEUALK7n-11" target="wRmezuv_6qh3SEUALK7n-9">
          <mxGeometry width="50" height="50" relative="1" as="geometry">
            <mxPoint x="670" y="380" as="sourcePoint" />
            <mxPoint x="720" y="330" as="targetPoint" />
          </mxGeometry>
        </mxCell>
        <mxCell id="wRmezuv_6qh3SEUALK7n-37" value="&lt;b style=&quot;font-size: 13px;&quot;&gt;YES&lt;/b&gt;" style="text;html=1;strokeColor=none;fillColor=none;align=center;verticalAlign=middle;whiteSpace=wrap;rounded=0;sketch=0;fontSize=13;fontColor=#2C2CDE;" vertex="1" parent="1">
          <mxGeometry x="263" y="169" width="40" height="20" as="geometry" />
        </mxCell>
        <mxCell id="wRmezuv_6qh3SEUALK7n-38" value="&lt;b style=&quot;font-size: 13px;&quot;&gt;YES&lt;/b&gt;" style="text;html=1;strokeColor=none;fillColor=none;align=center;verticalAlign=middle;whiteSpace=wrap;rounded=0;sketch=0;fontSize=13;fontColor=#2C2CDE;" vertex="1" parent="1">
          <mxGeometry x="55" y="373" width="40" height="20" as="geometry" />
        </mxCell>
        <mxCell id="wRmezuv_6qh3SEUALK7n-40" value="&lt;b style=&quot;font-size: 13px;&quot;&gt;YES&lt;/b&gt;" style="text;html=1;strokeColor=none;fillColor=none;align=center;verticalAlign=middle;whiteSpace=wrap;rounded=0;sketch=0;fontSize=13;fontColor=#2C2CDE;" vertex="1" parent="1">
          <mxGeometry x="492" y="365" width="40" height="20" as="geometry" />
        </mxCell>
        <mxCell id="wRmezuv_6qh3SEUALK7n-41" value="&lt;b style=&quot;font-size: 13px;&quot;&gt;YES&lt;/b&gt;" style="text;html=1;strokeColor=none;fillColor=none;align=center;verticalAlign=middle;whiteSpace=wrap;rounded=0;sketch=0;fontSize=13;fontColor=#2C2CDE;" vertex="1" parent="1">
          <mxGeometry x="-10" y="457" width="40" height="20" as="geometry" />
        </mxCell>
        <mxCell id="wRmezuv_6qh3SEUALK7n-42" value="&lt;b style=&quot;font-size: 13px;&quot;&gt;YES&lt;/b&gt;" style="text;html=1;strokeColor=none;fillColor=none;align=center;verticalAlign=middle;whiteSpace=wrap;rounded=0;sketch=0;fontSize=13;fontColor=#2C2CDE;" vertex="1" parent="1">
          <mxGeometry x="230" y="457" width="40" height="20" as="geometry" />
        </mxCell>
        <mxCell id="wRmezuv_6qh3SEUALK7n-43" value="&lt;b style=&quot;font-size: 13px&quot;&gt;NO&lt;/b&gt;" style="text;html=1;strokeColor=none;fillColor=none;align=center;verticalAlign=middle;whiteSpace=wrap;rounded=0;sketch=0;fontSize=13;fontColor=#2C2CDE;" vertex="1" parent="1">
          <mxGeometry x="537" y="169" width="40" height="20" as="geometry" />
        </mxCell>
        <mxCell id="wRmezuv_6qh3SEUALK7n-44" value="&lt;b style=&quot;font-size: 13px&quot;&gt;NO&lt;/b&gt;" style="text;html=1;strokeColor=none;fillColor=none;align=center;verticalAlign=middle;whiteSpace=wrap;rounded=0;sketch=0;fontSize=13;fontColor=#2C2CDE;" vertex="1" parent="1">
          <mxGeometry x="710" y="365" width="40" height="20" as="geometry" />
        </mxCell>
        <mxCell id="wRmezuv_6qh3SEUALK7n-45" value="&lt;b style=&quot;font-size: 13px&quot;&gt;NO&lt;/b&gt;" style="text;html=1;strokeColor=none;fillColor=none;align=center;verticalAlign=middle;whiteSpace=wrap;rounded=0;sketch=0;fontSize=13;fontColor=#2C2CDE;" vertex="1" parent="1">
          <mxGeometry x="339" y="373" width="40" height="20" as="geometry" />
        </mxCell>
        <mxCell id="wRmezuv_6qh3SEUALK7n-46" value="&lt;b style=&quot;font-size: 13px&quot;&gt;NO&lt;/b&gt;" style="text;html=1;strokeColor=none;fillColor=none;align=center;verticalAlign=middle;whiteSpace=wrap;rounded=0;sketch=0;fontSize=13;fontColor=#2C2CDE;" vertex="1" parent="1">
          <mxGeometry x="410" y="460" width="40" height="20" as="geometry" />
        </mxCell>
        <mxCell id="wRmezuv_6qh3SEUALK7n-47" value="&lt;b style=&quot;font-size: 13px&quot;&gt;NO&lt;/b&gt;" style="text;html=1;strokeColor=none;fillColor=none;align=center;verticalAlign=middle;whiteSpace=wrap;rounded=0;sketch=0;fontSize=13;fontColor=#2C2CDE;" vertex="1" parent="1">
          <mxGeometry x="170" y="457" width="40" height="20" as="geometry" />
        </mxCell>
      </root>
    </mxGraphModel>
  </diagram>
</mxfile>
